<svg xmlns="http://www.w3.org/2000/svg" width="1280" height="860" viewBox="0 0 1280 860">
<rect width="100%" height="100%" fill="#ffffff"/>
<text x="90.0" y="40.0" font-size="24" font-weight="bold" fill="#111827" text-anchor="start" font-family="Arial, sans-serif">Hanoi PM2.5 T+1h baseline stack</text>
<text x="90.0" y="66.0" font-size="13" font-weight="normal" fill="#4b5563" text-anchor="start" font-family="Arial, sans-serif">Top: 1-8 Nov 2024 episode. Bottom: full-holdout RMSE and MAE.</text>
<line x1="90" y1="520.0" x2="1220" y2="520.0" stroke="#e5e7eb" stroke-width="1"/>
<text x="80.0" y="524.0" font-size="11" font-weight="normal" fill="#6b7280" text-anchor="end" font-family="Arial, sans-serif">20</text>
<line x1="90" y1="466.2" x2="1220" y2="466.2" stroke="#e5e7eb" stroke-width="1"/>
<text x="80.0" y="470.2" font-size="11" font-weight="normal" fill="#6b7280" text-anchor="end" font-family="Arial, sans-serif">40</text>
<line x1="90" y1="412.5" x2="1220" y2="412.5" stroke="#e5e7eb" stroke-width="1"/>
<text x="80.0" y="416.5" font-size="11" font-weight="normal" fill="#6b7280" text-anchor="end" font-family="Arial, sans-serif">60</text>
<line x1="90" y1="358.8" x2="1220" y2="358.8" stroke="#e5e7eb" stroke-width="1"/>
<text x="80.0" y="362.8" font-size="11" font-weight="normal" fill="#6b7280" text-anchor="end" font-family="Arial, sans-serif">80</text>
<line x1="90" y1="305.0" x2="1220" y2="305.0" stroke="#e5e7eb" stroke-width="1"/>
<text x="80.0" y="309.0" font-size="11" font-weight="normal" fill="#6b7280" text-anchor="end" font-family="Arial, sans-serif">100</text>
<line x1="90" y1="251.2" x2="1220" y2="251.2" stroke="#e5e7eb" stroke-width="1"/>
<text x="80.0" y="255.2" font-size="11" font-weight="normal" fill="#6b7280" text-anchor="end" font-family="Arial, sans-serif">120</text>
<line x1="90" y1="197.5" x2="1220" y2="197.5" stroke="#e5e7eb" stroke-width="1"/>
<text x="80.0" y="201.5" font-size="11" font-weight="normal" fill="#6b7280" text-anchor="end" font-family="Arial, sans-serif">140</text>
<line x1="90" y1="143.8" x2="1220" y2="143.8" stroke="#e5e7eb" stroke-width="1"/>
<text x="80.0" y="147.8" font-size="11" font-weight="normal" fill="#6b7280" text-anchor="end" font-family="Arial, sans-serif">160</text>
<line x1="90" y1="90.0" x2="1220" y2="90.0" stroke="#e5e7eb" stroke-width="1"/>
<text x="80.0" y="94.0" font-size="11" font-weight="normal" fill="#6b7280" text-anchor="end" font-family="Arial, sans-serif">180</text>
<rect x="90" y="90" width="1130" height="430" fill="none" stroke="#111827" stroke-width="1"/>
<polyline fill="none" stroke="#000000" stroke-width="1.6" points="90.0,167.9 96.8,122.2 103.5,108.8 110.3,184.1 117.1,221.7 123.8,232.4 130.6,243.2 137.4,186.8 144.1,186.8 150.9,232.4 157.7,417.9 164.4,498.5 171.2,487.8 178.0,487.8 184.7,490.4 191.5,495.8 198.3,498.5 205.0,477.0 211.8,442.1 218.6,385.6 225.3,283.5 232.1,356.1 238.9,401.8 245.6,337.2 252.4,302.3 259.2,305.0 265.9,420.6 272.7,364.1 279.5,350.7 286.2,361.4 293.0,329.2 299.8,339.9 306.5,342.6 313.3,393.7 320.1,477.0 326.8,482.4 333.6,485.1 340.4,495.8 347.1,487.8 353.9,487.8 360.7,487.8 367.4,474.3 374.2,409.8 381.0,305.0 387.7,240.5 394.5,366.8 401.3,382.9 408.0,366.8 414.8,374.9 421.6,374.9 428.3,396.4 435.1,415.2 441.9,412.5 448.6,270.1 455.4,275.4 462.2,310.4 468.9,396.4 475.7,415.2 482.5,415.2 489.2,382.9 496.0,380.2 502.8,382.9 509.5,412.5 516.3,412.5 523.1,388.3 529.8,326.5 536.6,310.4 543.4,358.8 550.1,251.2 556.9,259.3 563.7,229.8 570.4,256.6 577.2,302.3 584.0,369.5 590.7,439.4 597.5,356.1 604.3,331.9 611.0,374.9 617.8,294.2 624.6,251.2 631.3,296.9 638.1,318.4 644.9,396.4 651.6,428.6 658.4,412.5 665.1,423.2 671.9,428.6 678.7,436.7 685.4,452.8 692.2,436.7 699.0,334.6 705.7,393.7 712.5,439.4 719.3,458.2 726.0,471.6 732.8,444.8 739.6,431.3 746.3,391.0 753.1,436.7 759.9,412.5 766.6,407.1 773.4,385.6 780.2,401.8 786.9,417.9 793.7,401.8 800.5,417.9 807.2,439.4 814.0,391.0 820.8,444.8 827.5,444.8 834.3,444.8 841.1,450.1 847.8,417.9 854.6,388.3 861.4,396.4 868.1,388.3 874.9,382.9 881.7,401.8 888.4,401.8 895.2,369.5 902.0,380.2 908.7,399.1 915.5,369.5 922.3,366.8 929.0,348.0 935.8,358.8 942.6,377.6 949.3,369.5 956.1,358.8 962.9,334.6 969.6,388.3 976.4,436.7 983.2,356.1 989.9,353.4 996.7,436.7 1003.5,439.4 1010.2,420.6 1017.0,385.6 1023.8,366.8 1030.5,329.2 1037.3,259.3 1044.1,264.7 1050.8,248.6 1057.6,267.4 1064.4,275.4 1071.1,256.6 1077.9,213.6 1084.7,262.0 1091.4,219.0 1098.2,251.2 1105.0,253.9 1111.7,348.0 1118.5,334.6 1125.3,331.9 1132.0,393.7 1138.8,409.8 1145.6,431.3 1152.3,396.4 1159.1,431.3 1165.9,444.8 1172.6,436.7 1179.4,409.8 1186.2,385.6 1192.9,219.0 1199.7,331.9 1206.5,318.4 1213.2,366.8 1220.0,380.2"/>
<polyline fill="none" stroke="#6b7280" stroke-width="1.5" stroke-dasharray="7 5" points="90.0,189.4 96.8,167.9 103.5,122.2 110.3,108.8 117.1,184.1 123.8,221.7 130.6,232.4 137.4,243.2 144.1,186.8 150.9,186.8 157.7,232.4 164.4,417.9 171.2,498.5 178.0,487.8 184.7,487.8 191.5,490.4 198.3,495.8 205.0,498.5 211.8,477.0 218.6,442.1 225.3,385.6 232.1,283.5 238.9,356.1 245.6,401.8 252.4,337.2 259.2,302.3 265.9,305.0 272.7,420.6 279.5,364.1 286.2,350.7 293.0,361.4 299.8,329.2 306.5,339.9 313.3,342.6 320.1,393.7 326.8,477.0 333.6,482.4 340.4,485.1 347.1,495.8 353.9,487.8 360.7,487.8 367.4,487.8 374.2,474.3 381.0,409.8 387.7,305.0 394.5,240.5 401.3,366.8 408.0,382.9 414.8,366.8 421.6,374.9 428.3,374.9 435.1,396.4 441.9,415.2 448.6,412.5 455.4,270.1 462.2,275.4 468.9,310.4 475.7,396.4 482.5,415.2 489.2,415.2 496.0,382.9 502.8,380.2 509.5,382.9 516.3,412.5 523.1,412.5 529.8,388.3 536.6,326.5 543.4,310.4 550.1,358.8 556.9,251.2 563.7,259.3 570.4,229.8 577.2,256.6 584.0,302.3 590.7,369.5 597.5,439.4 604.3,356.1 611.0,331.9 617.8,374.9 624.6,294.2 631.3,251.2 638.1,296.9 644.9,318.4 651.6,396.4 658.4,428.6 665.1,412.5 671.9,423.2 678.7,428.6 685.4,436.7 692.2,452.8 699.0,436.7 705.7,334.6 712.5,393.7 719.3,439.4 726.0,458.2 732.8,471.6 739.6,444.8 746.3,431.3 753.1,391.0 759.9,436.7 766.6,412.5 773.4,407.1 780.2,385.6 786.9,401.8 793.7,417.9 800.5,401.8 807.2,417.9 814.0,439.4 820.8,391.0 827.5,444.8 834.3,444.8 841.1,444.8 847.8,450.1 854.6,417.9 861.4,388.3 868.1,396.4 874.9,388.3 881.7,382.9 888.4,401.8 895.2,401.8 902.0,369.5 908.7,380.2 915.5,399.1 922.3,369.5 929.0,366.8 935.8,348.0 942.6,358.8 949.3,377.6 956.1,369.5 962.9,358.8 969.6,334.6 976.4,388.3 983.2,436.7 989.9,356.1 996.7,353.4 1003.5,436.7 1010.2,439.4 1017.0,420.6 1023.8,385.6 1030.5,366.8 1037.3,329.2 1044.1,259.3 1050.8,264.7 1057.6,248.6 1064.4,267.4 1071.1,275.4 1077.9,256.6 1084.7,213.6 1091.4,262.0 1098.2,219.0 1105.0,251.2 1111.7,253.9 1118.5,348.0 1125.3,334.6 1132.0,331.9 1138.8,393.7 1145.6,409.8 1152.3,431.3 1159.1,396.4 1165.9,431.3 1172.6,444.8 1179.4,436.7 1186.2,409.8 1192.9,385.6 1199.7,219.0 1206.5,331.9 1213.2,318.4 1220.0,366.8"/>
<polyline fill="none" stroke="#2563eb" stroke-width="1.5" points="90.0,288.0 96.8,243.2 103.5,207.4 110.3,159.9 117.1,133.0 123.8,138.4 130.6,171.5 137.4,212.7 144.1,232.4 150.9,220.8 157.7,205.6 164.4,202.0 171.2,279.0 178.0,382.9 184.7,468.0 191.5,491.3 198.3,488.6 205.0,491.3 211.8,494.9 218.6,490.4 225.3,472.5 232.1,434.9 238.9,370.4 245.6,341.7 252.4,347.1 259.2,365.0 265.9,347.1 272.7,314.9 279.5,342.6 286.2,363.2 293.0,378.5 299.8,358.7 306.5,347.1 313.3,343.5 320.1,337.2 326.8,358.7 333.6,404.4 340.4,451.0 347.1,481.5 353.9,487.7 360.7,489.5 367.4,490.4 374.2,487.8 381.0,483.3 387.7,457.3 394.5,396.4 401.3,318.4 408.0,304.1 414.8,330.1 421.6,372.2 428.3,374.9 435.1,372.2 441.9,382.0 448.6,395.5 455.4,408.0 462.2,365.9 468.9,319.3 475.7,285.3 482.5,327.4 489.2,374.0 496.0,408.9 502.8,404.4 509.5,392.8 516.3,382.0 523.1,391.9 529.8,402.6 536.6,404.4 543.4,375.8 550.1,341.7 556.9,331.9 563.7,306.8 570.4,289.8 577.2,246.8 584.0,248.6 590.7,262.9 597.5,309.5 604.3,370.4 611.0,388.3 617.8,375.8 624.6,354.3 631.3,333.7 638.1,306.8 644.9,280.8 651.6,288.9 658.4,337.2 665.1,381.1 671.9,412.5 678.7,421.5 685.4,421.5 692.2,429.5 699.0,439.4 705.7,442.1 712.5,408.0 719.3,388.3 726.0,389.2 732.8,430.4 739.6,456.4 746.3,458.2 753.1,449.2 759.9,422.4 766.6,419.7 773.4,413.4 780.2,418.8 786.9,401.7 793.7,398.2 800.5,401.7 807.2,407.1 814.0,412.5 820.8,419.7 827.5,416.1 834.3,425.0 841.1,426.8 847.8,444.8 854.6,446.5 861.4,437.6 868.1,418.8 874.9,400.9 881.7,391.0 888.4,389.2 895.2,391.0 902.0,395.5 908.7,391.0 915.5,383.8 922.3,382.9 929.0,382.9 935.8,378.5 942.6,361.4 949.3,357.9 956.1,361.4 962.9,368.6 969.6,368.6 976.4,354.3 983.2,360.5 989.9,386.5 996.7,393.7 1003.5,382.0 1010.2,382.0 1017.0,409.8 1023.8,432.2 1030.5,415.2 1037.3,391.0 1044.1,360.5 1050.8,318.4 1057.6,284.4 1064.4,257.5 1071.1,260.2 1077.9,263.8 1084.7,266.5 1091.4,248.6 1098.2,244.1 1105.0,231.5 1111.7,244.1 1118.5,241.4 1125.3,284.4 1132.0,312.2 1138.8,338.1 1145.6,353.4 1152.3,378.5 1159.1,411.6 1165.9,412.5 1172.6,419.7 1179.4,424.1 1186.2,437.6 1192.9,430.4 1199.7,410.7 1206.5,338.1 1213.2,312.2 1220.0,289.8"/>
<polyline fill="none" stroke="#60a5fa" stroke-width="1.5" points="90.0,357.6 96.8,345.5 103.5,331.7 110.3,312.8 117.1,291.6 123.8,275.0 130.6,260.0 137.4,240.7 144.1,225.5 150.9,210.0 157.7,198.6 164.4,195.0 171.2,207.8 178.0,233.6 184.7,260.2 191.5,290.7 198.3,322.5 205.0,348.4 211.8,371.5 218.6,391.9 225.3,408.5 232.1,425.0 238.9,433.1 245.6,443.4 252.4,442.1 259.2,428.6 265.9,413.2 272.7,397.9 279.5,392.1 286.2,381.1 293.0,368.8 299.8,359.2 306.5,349.8 313.3,346.0 320.1,350.9 326.8,354.0 333.6,360.3 340.4,372.4 347.1,387.6 353.9,403.5 360.7,409.1 367.4,419.4 374.2,430.9 381.0,440.3 387.7,447.0 394.5,444.1 401.3,435.6 408.0,433.3 414.8,425.5 421.6,415.9 428.3,406.7 435.1,396.6 441.9,389.0 448.6,382.9 455.4,376.7 462.2,359.6 468.9,348.4 475.7,348.9 482.5,361.9 489.2,365.9 496.0,368.6 502.8,369.9 509.5,370.4 516.3,371.1 523.1,372.4 529.8,372.2 536.6,370.2 543.4,374.9 550.1,377.8 556.9,381.8 563.7,369.7 570.4,356.7 577.2,341.3 584.0,330.8 590.7,324.3 597.5,323.1 604.3,325.4 611.0,320.7 617.8,316.0 624.6,320.0 631.3,318.7 638.1,309.7 644.9,313.5 651.6,318.4 658.4,332.3 665.1,346.7 671.9,355.8 678.7,360.3 685.4,359.4 692.2,366.1 699.0,376.2 705.7,381.4 712.5,384.7 719.3,396.6 726.0,408.5 732.8,420.1 739.6,426.4 746.3,427.7 753.1,429.3 759.9,426.6 766.6,427.3 773.4,425.3 780.2,421.5 786.9,417.2 793.7,422.8 800.5,424.8 807.2,421.7 814.0,418.3 820.8,415.6 827.5,411.2 834.3,412.3 841.1,416.8 847.8,417.4 854.6,420.6 861.4,421.5 868.1,421.7 874.9,421.2 881.7,418.8 888.4,417.2 895.2,415.9 902.0,412.7 908.7,410.9 915.5,405.6 922.3,401.8 929.0,395.5 935.8,388.5 942.6,382.7 949.3,380.2 956.1,378.7 962.9,377.1 969.6,375.1 976.4,369.5 983.2,368.4 989.9,374.0 996.7,372.0 1003.5,368.2 1010.2,373.8 1017.0,379.8 1023.8,385.8 1030.5,388.1 1037.3,387.2 1044.1,383.8 1050.8,375.5 1057.6,369.7 1064.4,358.1 1071.1,344.0 1077.9,337.2 1084.7,329.2 1091.4,310.6 1098.2,295.8 1105.0,279.0 1111.7,267.8 1118.5,258.4 1125.3,260.0 1132.0,266.3 1138.8,271.9 1145.6,283.9 1152.3,295.8 1159.1,308.8 1165.9,320.5 1172.6,338.6 1179.4,353.8 1186.2,372.0 1192.9,385.2 1199.7,396.2 1206.5,385.4 1213.2,385.2 1220.0,384.1"/>
<polyline fill="none" stroke="#059669" stroke-width="1.5" stroke-dasharray="10 4 2 4" points="90.0,240.5 96.8,204.2 103.5,163.4 110.3,136.2 117.1,160.1 123.8,191.1 130.6,211.7 137.4,227.6 144.1,207.2 150.9,199.1 157.7,210.1 164.4,316.3 171.2,407.7 178.0,447.7 184.7,467.9 191.5,479.1 198.3,487.8 205.0,493.1 211.8,485.1 218.6,463.8 225.3,424.9 232.1,354.2 238.9,355.3 245.6,378.6 252.4,357.9 259.2,330.3 265.9,317.6 272.7,369.2 279.5,366.8 286.2,358.8 293.0,360.1 299.8,345.6 306.5,342.9 313.3,343.4 320.1,365.2 326.8,422.7 333.6,452.5 340.4,468.9 347.1,482.4 353.9,485.1 360.7,486.7 367.4,487.2 374.2,480.8 381.0,445.3 387.7,375.1 394.5,308.0 401.3,337.5 408.0,360.4 414.8,363.6 421.6,369.2 428.3,372.2 435.1,384.3 441.9,399.9 448.6,406.3 455.4,338.1 462.2,306.9 468.9,308.8 475.7,351.5 482.5,381.9 489.2,398.0 496.0,390.7 502.8,385.9 509.5,384.5 516.3,398.0 523.1,405.0 529.8,397.2 536.6,364.1 543.4,345.6 550.1,351.0 556.9,299.4 563.7,279.5 570.4,254.7 577.2,255.6 584.0,278.9 590.7,324.4 597.5,381.9 604.3,369.0 611.0,350.4 617.8,362.8 624.6,328.6 631.3,290.0 638.1,293.4 644.9,306.1 651.6,351.2 658.4,389.9 665.1,401.5 671.9,412.5 678.7,420.6 685.4,428.6 692.2,440.7 699.0,438.8 705.7,386.7 712.5,390.2 719.3,414.9 726.0,436.7 732.8,454.2 739.6,449.6 746.3,440.4 753.1,415.7 759.9,426.2 766.6,419.5 773.4,413.3 780.2,399.6 786.9,401.5 793.7,409.0 800.5,405.8 807.2,411.4 814.0,419.5 820.8,410.6 827.5,421.4 834.3,428.9 841.1,434.0 847.8,440.4 854.6,432.7 861.4,417.9 868.1,410.9 874.9,403.4 881.7,395.6 888.4,397.7 895.2,399.1 902.0,387.2 908.7,384.5 915.5,390.2 922.3,382.1 929.0,380.2 935.8,372.2 942.6,368.7 949.3,370.6 956.1,370.3 962.9,367.4 969.6,357.1 976.4,365.7 983.2,397.2 989.9,379.7 996.7,368.4 1003.5,397.7 1010.2,416.3 1017.0,418.4 1023.8,404.2 1030.5,387.8 1037.3,361.2 1044.1,308.2 1050.8,286.5 1057.6,267.6 1064.4,267.6 1071.1,271.7 1077.9,264.1 1084.7,238.9 1091.4,250.4 1098.2,235.7 1105.0,243.5 1111.7,247.8 1118.5,285.1 1125.3,303.7 1132.0,314.4 1138.8,359.0 1145.6,384.5 1152.3,407.9 1159.1,402.3 1165.9,416.8 1172.6,430.8 1179.4,434.0 1186.2,421.9 1192.9,405.2 1199.7,311.5 1206.5,321.7 1213.2,320.0 1220.0,343.4"/>
<polyline fill="none" stroke="#dc2626" stroke-width="2.0" points="90.0,210.1 96.8,195.7 103.5,153.9 110.3,143.1 117.1,210.5 123.8,241.2 130.6,249.2 137.4,259.6 144.1,209.3 150.9,211.1 157.7,250.2 164.4,412.8 171.2,480.9 178.0,472.8 184.7,474.5 191.5,474.1 198.3,473.2 205.0,473.0 211.8,453.0 218.6,423.2 225.3,376.9 232.1,288.7 238.9,357.6 245.6,389.5 252.4,333.1 259.2,308.6 265.9,313.4 272.7,416.9 279.5,362.5 286.2,356.0 293.0,365.6 299.8,337.2 306.5,351.1 313.3,357.8 320.1,402.3 326.8,471.4 333.6,474.5 340.4,478.6 347.1,486.3 353.9,473.0 360.7,474.0 367.4,473.9 374.2,462.4 381.0,407.0 387.7,316.4 394.5,263.7 401.3,375.0 408.0,381.6 414.8,371.7 421.6,381.2 428.3,379.7 435.1,396.1 441.9,412.3 448.6,410.2 455.4,284.1 462.2,296.7 468.9,327.5 475.7,406.2 482.5,417.2 489.2,418.7 496.0,389.9 502.8,385.8 509.5,385.2 516.3,409.7 523.1,407.6 529.8,386.5 536.6,336.5 543.4,323.8 550.1,366.0 556.9,266.6 563.7,278.5 570.4,250.0 577.2,276.2 584.0,314.8 590.7,373.9 597.5,433.6 604.3,356.1 611.0,337.8 617.8,377.2 624.6,303.1 631.3,267.2 638.1,311.1 644.9,328.0 651.6,399.4 658.4,425.5 665.1,409.8 671.9,416.8 678.7,416.1 685.4,424.7 692.2,439.6 699.0,424.5 705.7,337.7 712.5,394.4 719.3,431.0 726.0,449.6 732.8,461.7 739.6,437.7 746.3,427.2 753.1,389.6 759.9,430.6 766.6,407.9 773.4,406.2 780.2,386.4 786.9,407.0 793.7,420.2 800.5,405.4 807.2,420.9 814.0,437.8 820.8,394.3 827.5,444.7 834.3,442.7 841.1,442.5 847.8,447.7 854.6,418.4 861.4,393.3 868.1,401.7 874.9,393.4 881.7,388.8 888.4,405.2 895.2,403.2 902.0,376.7 908.7,385.8 915.5,402.2 922.3,375.1 929.0,373.5 935.8,357.1 942.6,368.8 949.3,383.6 956.1,375.8 962.9,367.6 969.6,345.1 976.4,393.3 983.2,435.3 989.9,361.6 996.7,362.1 1003.5,434.6 1010.2,433.0 1017.0,418.8 1023.8,388.5 1030.5,370.7 1037.3,337.2 1044.1,277.0 1050.8,285.1 1057.6,268.1 1064.4,284.9 1071.1,294.1 1077.9,277.2 1084.7,236.9 1091.4,279.8 1098.2,238.5 1105.0,270.2 1111.7,270.2 1118.5,355.4 1125.3,341.3 1132.0,340.9 1138.8,394.2 1145.6,402.7 1152.3,422.3 1159.1,390.8 1165.9,423.4 1172.6,430.4 1179.4,424.6 1186.2,400.4 1192.9,380.4 1199.7,229.8 1206.5,338.4 1213.2,320.4 1220.0,367.3"/>
<line x1="90.0" y1="90" x2="90.0" y2="520" stroke="#f3f4f6" stroke-width="1"/>
<text x="90.0" y="542.0" font-size="11" font-weight="normal" fill="#6b7280" text-anchor="middle" font-family="Arial, sans-serif">Nov 01</text>
<line x1="90.0" y1="90" x2="90.0" y2="520" stroke="#f3f4f6" stroke-width="1"/>
<text x="90.0" y="542.0" font-size="11" font-weight="normal" fill="#6b7280" text-anchor="middle" font-family="Arial, sans-serif">Nov 02</text>
<line x1="90.0" y1="90" x2="90.0" y2="520" stroke="#f3f4f6" stroke-width="1"/>
<text x="90.0" y="542.0" font-size="11" font-weight="normal" fill="#6b7280" text-anchor="middle" font-family="Arial, sans-serif">Nov 03</text>
<line x1="90.0" y1="90" x2="90.0" y2="520" stroke="#f3f4f6" stroke-width="1"/>
<text x="90.0" y="542.0" font-size="11" font-weight="normal" fill="#6b7280" text-anchor="middle" font-family="Arial, sans-serif">Nov 04</text>
<line x1="90.0" y1="90" x2="90.0" y2="520" stroke="#f3f4f6" stroke-width="1"/>
<text x="90.0" y="542.0" font-size="11" font-weight="normal" fill="#6b7280" text-anchor="middle" font-family="Arial, sans-serif">Nov 05</text>
<line x1="90.0" y1="90" x2="90.0" y2="520" stroke="#f3f4f6" stroke-width="1"/>
<text x="90.0" y="542.0" font-size="11" font-weight="normal" fill="#6b7280" text-anchor="middle" font-family="Arial, sans-serif">Nov 06</text>
<line x1="90.0" y1="90" x2="90.0" y2="520" stroke="#f3f4f6" stroke-width="1"/>
<text x="90.0" y="542.0" font-size="11" font-weight="normal" fill="#6b7280" text-anchor="middle" font-family="Arial, sans-serif">Nov 07</text>
<text x="32.0" y="305.0" font-size="12" font-weight="normal" fill="#374151" text-anchor="start" font-family="Arial, sans-serif">PM2.5 (ug/m3)</text>
<line x1="775" y1="105" x2="799" y2="105" stroke="#000000" stroke-width="2"/>
<text x="807.0" y="109.0" font-size="11" font-weight="normal" fill="#111827" text-anchor="start" font-family="Arial, sans-serif">Actual target</text>
<line x1="775" y1="127" x2="799" y2="127" stroke="#6b7280" stroke-width="2"/>
<text x="807.0" y="131.0" font-size="11" font-weight="normal" fill="#111827" text-anchor="start" font-family="Arial, sans-serif">Persistence</text>
<line x1="775" y1="149" x2="799" y2="149" stroke="#2563eb" stroke-width="2"/>
<text x="807.0" y="153.0" font-size="11" font-weight="normal" fill="#111827" text-anchor="start" font-family="Arial, sans-serif">Rolling mean 3h</text>
<line x1="775" y1="171" x2="799" y2="171" stroke="#60a5fa" stroke-width="2"/>
<text x="807.0" y="175.0" font-size="11" font-weight="normal" fill="#111827" text-anchor="start" font-family="Arial, sans-serif">Rolling mean 12h</text>
<line x1="775" y1="193" x2="799" y2="193" stroke="#059669" stroke-width="2"/>
<text x="807.0" y="197.0" font-size="11" font-weight="normal" fill="#111827" text-anchor="start" font-family="Arial, sans-serif">NowCast</text>
<line x1="775" y1="215" x2="799" y2="215" stroke="#dc2626" stroke-width="2"/>
<text x="807.0" y="219.0" font-size="11" font-weight="normal" fill="#111827" text-anchor="start" font-family="Arial, sans-serif">Linear AR</text>
<text x="90.0" y="548.0" font-size="14" font-weight="bold" fill="#111827" text-anchor="start" font-family="Arial, sans-serif">Episode view: actual target versus naive and autoregressive baselines</text>
<text x="90.0" y="582.0" font-size="14" font-weight="bold" fill="#111827" text-anchor="start" font-family="Arial, sans-serif">Full holdout ranking</text>
<rect x="90" y="600" width="1130" height="180" fill="none" stroke="#111827" stroke-width="1"/>
<line x1="260.0" y1="600" x2="260.0" y2="780" stroke="#e5e7eb" stroke-width="1"/>
<text x="260.0" y="802.0" font-size="11" font-weight="normal" fill="#6b7280" text-anchor="middle" font-family="Arial, sans-serif">0</text>
<line x1="333.9" y1="600" x2="333.9" y2="780" stroke="#e5e7eb" stroke-width="1"/>
<text x="333.9" y="802.0" font-size="11" font-weight="normal" fill="#6b7280" text-anchor="middle" font-family="Arial, sans-serif">2</text>
<line x1="407.8" y1="600" x2="407.8" y2="780" stroke="#e5e7eb" stroke-width="1"/>
<text x="407.8" y="802.0" font-size="11" font-weight="normal" fill="#6b7280" text-anchor="middle" font-family="Arial, sans-serif">4</text>
<line x1="481.7" y1="600" x2="481.7" y2="780" stroke="#e5e7eb" stroke-width="1"/>
<text x="481.7" y="802.0" font-size="11" font-weight="normal" fill="#6b7280" text-anchor="middle" font-family="Arial, sans-serif">6</text>
<line x1="555.7" y1="600" x2="555.7" y2="780" stroke="#e5e7eb" stroke-width="1"/>
<text x="555.7" y="802.0" font-size="11" font-weight="normal" fill="#6b7280" text-anchor="middle" font-family="Arial, sans-serif">8</text>
<line x1="629.6" y1="600" x2="629.6" y2="780" stroke="#e5e7eb" stroke-width="1"/>
<text x="629.6" y="802.0" font-size="11" font-weight="normal" fill="#6b7280" text-anchor="middle" font-family="Arial, sans-serif">10</text>
<line x1="703.5" y1="600" x2="703.5" y2="780" stroke="#e5e7eb" stroke-width="1"/>
<text x="703.5" y="802.0" font-size="11" font-weight="normal" fill="#6b7280" text-anchor="middle" font-family="Arial, sans-serif">12</text>
<line x1="777.4" y1="600" x2="777.4" y2="780" stroke="#e5e7eb" stroke-width="1"/>
<text x="777.4" y="802.0" font-size="11" font-weight="normal" fill="#6b7280" text-anchor="middle" font-family="Arial, sans-serif">14</text>
<line x1="851.3" y1="600" x2="851.3" y2="780" stroke="#e5e7eb" stroke-width="1"/>
<text x="851.3" y="802.0" font-size="11" font-weight="normal" fill="#6b7280" text-anchor="middle" font-family="Arial, sans-serif">16</text>
<line x1="925.2" y1="600" x2="925.2" y2="780" stroke="#e5e7eb" stroke-width="1"/>
<text x="925.2" y="802.0" font-size="11" font-weight="normal" fill="#6b7280" text-anchor="middle" font-family="Arial, sans-serif">18</text>
<line x1="999.1" y1="600" x2="999.1" y2="780" stroke="#e5e7eb" stroke-width="1"/>
<text x="999.1" y="802.0" font-size="11" font-weight="normal" fill="#6b7280" text-anchor="middle" font-family="Arial, sans-serif">20</text>
<line x1="1073.0" y1="600" x2="1073.0" y2="780" stroke="#e5e7eb" stroke-width="1"/>
<text x="1073.0" y="802.0" font-size="11" font-weight="normal" fill="#6b7280" text-anchor="middle" font-family="Arial, sans-serif">22</text>
<text x="98.0" y="622.0" font-size="11" font-weight="normal" fill="#111827" text-anchor="start" font-family="Arial, sans-serif">Linear AR</text>
<rect x="260.0" y="608.0" width="485.4" height="20.0" fill="#dc2626" opacity="0.85"/>
<text x="755.4" y="622.0" font-size="11" font-weight="normal" fill="#374151" text-anchor="start" font-family="Arial, sans-serif">RMSE 13.14 | MAE 7.83</text>
<text x="98.0" y="658.0" font-size="11" font-weight="normal" fill="#111827" text-anchor="start" font-family="Arial, sans-serif">Persistence</text>
<rect x="260.0" y="644.0" width="506.6" height="20.0" fill="#6b7280" opacity="0.85"/>
<text x="776.6" y="658.0" font-size="11" font-weight="normal" fill="#374151" text-anchor="start" font-family="Arial, sans-serif">RMSE 13.71 | MAE 8.04</text>
<text x="98.0" y="694.0" font-size="11" font-weight="normal" fill="#111827" text-anchor="start" font-family="Arial, sans-serif">NowCast</text>
<rect x="260.0" y="680.0" width="538.6" height="20.0" fill="#059669" opacity="0.85"/>
<text x="808.6" y="694.0" font-size="11" font-weight="normal" fill="#374151" text-anchor="start" font-family="Arial, sans-serif">RMSE 14.57 | MAE 9.06</text>
<text x="98.0" y="730.0" font-size="11" font-weight="normal" fill="#111827" text-anchor="start" font-family="Arial, sans-serif">Rolling mean 3h</text>
<rect x="260.0" y="716.0" width="714.1" height="20.0" fill="#2563eb" opacity="0.85"/>
<text x="984.1" y="730.0" font-size="11" font-weight="normal" fill="#374151" text-anchor="start" font-family="Arial, sans-serif">RMSE 19.32 | MAE 12.33</text>
<text x="98.0" y="766.0" font-size="11" font-weight="normal" fill="#111827" text-anchor="start" font-family="Arial, sans-serif">Rolling mean 12h</text>
<rect x="260.0" y="752.0" width="792.4" height="20.0" fill="#60a5fa" opacity="0.85"/>
<text x="1062.4" y="766.0" font-size="11" font-weight="normal" fill="#374151" text-anchor="start" font-family="Arial, sans-serif">RMSE 21.44 | MAE 14.45</text>
<text x="685.0" y="826.0" font-size="12" font-weight="normal" fill="#374151" text-anchor="middle" font-family="Arial, sans-serif">RMSE on validation/test split for T+1h</text>
<text x="90.0" y="826.0" font-size="11" font-weight="normal" fill="#4b5563" text-anchor="start" font-family="Arial, sans-serif">Linear AR uses only PM2.5 history and change terms. It is a practical autoregressive baseline in the current environment.</text>
</svg>