<svg xmlns="http://www.w3.org/2000/svg" width="500" height="600" viewBox="0 0 500 600">
<style>text{font-family:Arial,sans-serif;font-size:12px} .title{font-size:18px;font-weight:bold}</style>
<text x="20" y="24" class="title">Hour-of-Day Stability</text>
<text x="20" y="42">Hours are labeled suspect only when any pair drops below r = 0.2 across the full campaign.</text>
<text x="180.0" y="52" text-anchor="middle">DC1100 vs DC1700</text>
<text x="300.0" y="52" text-anchor="middle">DC1100 vs AirVisual</text>
<text x="420.0" y="52" text-anchor="middle">DC1700 vs AirVisual</text>
<text x="20" y="74">00:00</text>
<rect x="120" y="60" width="120" height="20" fill="#bde269" stroke="#ffffff" />
<text x="180.0" y="74" text-anchor="middle">0.934</text>
<rect x="240" y="60" width="120" height="20" fill="#c4e478" stroke="#ffffff" />
<text x="300.0" y="74" text-anchor="middle">0.842</text>
<rect x="360" y="60" width="120" height="20" fill="#c0e370" stroke="#ffffff" />
<text x="420.0" y="74" text-anchor="middle">0.888</text>
<text x="20" y="94">01:00</text>
<rect x="120" y="80" width="120" height="20" fill="#bde269" stroke="#ffffff" />
<text x="180.0" y="94" text-anchor="middle">0.932</text>
<rect x="240" y="80" width="120" height="20" fill="#c4e478" stroke="#ffffff" />
<text x="300.0" y="94" text-anchor="middle">0.841</text>
<rect x="360" y="80" width="120" height="20" fill="#c0e370" stroke="#ffffff" />
<text x="420.0" y="94" text-anchor="middle">0.891</text>
<text x="20" y="114">02:00</text>
<rect x="120" y="100" width="120" height="20" fill="#bde269" stroke="#ffffff" />
<text x="180.0" y="114" text-anchor="middle">0.933</text>
<rect x="240" y="100" width="120" height="20" fill="#c4e478" stroke="#ffffff" />
<text x="300.0" y="114" text-anchor="middle">0.843</text>
<rect x="360" y="100" width="120" height="20" fill="#c0e370" stroke="#ffffff" />
<text x="420.0" y="114" text-anchor="middle">0.892</text>
<text x="20" y="134">03:00</text>
<rect x="120" y="120" width="120" height="20" fill="#bde269" stroke="#ffffff" />
<text x="180.0" y="134" text-anchor="middle">0.932</text>
<rect x="240" y="120" width="120" height="20" fill="#c4e478" stroke="#ffffff" />
<text x="300.0" y="134" text-anchor="middle">0.840</text>
<rect x="360" y="120" width="120" height="20" fill="#c0e370" stroke="#ffffff" />
<text x="420.0" y="134" text-anchor="middle">0.891</text>
<text x="20" y="154">04:00</text>
<rect x="120" y="140" width="120" height="20" fill="#bde26a" stroke="#ffffff" />
<text x="180.0" y="154" text-anchor="middle">0.929</text>
<rect x="240" y="140" width="120" height="20" fill="#c3e477" stroke="#ffffff" />
<text x="300.0" y="154" text-anchor="middle">0.844</text>
<rect x="360" y="140" width="120" height="20" fill="#c0e36f" stroke="#ffffff" />
<text x="420.0" y="154" text-anchor="middle">0.899</text>
<text x="20" y="174">05:00</text>
<rect x="120" y="160" width="120" height="20" fill="#bee26a" stroke="#ffffff" />
<text x="180.0" y="174" text-anchor="middle">0.926</text>
<rect x="240" y="160" width="120" height="20" fill="#c4e478" stroke="#ffffff" />
<text x="300.0" y="174" text-anchor="middle">0.843</text>
<rect x="360" y="160" width="120" height="20" fill="#bfe26e" stroke="#ffffff" />
<text x="420.0" y="174" text-anchor="middle">0.902</text>
<text x="20" y="194">06:00</text>
<rect x="120" y="180" width="120" height="20" fill="#bee26b" stroke="#ffffff" />
<text x="180.0" y="194" text-anchor="middle">0.924</text>
<rect x="240" y="180" width="120" height="20" fill="#c4e479" stroke="#ffffff" />
<text x="300.0" y="194" text-anchor="middle">0.837</text>
<rect x="360" y="180" width="120" height="20" fill="#c0e36f" stroke="#ffffff" />
<text x="420.0" y="194" text-anchor="middle">0.897</text>
<text x="20" y="214">07:00</text>
<rect x="120" y="200" width="120" height="20" fill="#bde269" stroke="#ffffff" />
<text x="180.0" y="214" text-anchor="middle">0.932</text>
<rect x="240" y="200" width="120" height="20" fill="#c4e478" stroke="#ffffff" />
<text x="300.0" y="214" text-anchor="middle">0.840</text>
<rect x="360" y="200" width="120" height="20" fill="#c0e370" stroke="#ffffff" />
<text x="420.0" y="214" text-anchor="middle">0.888</text>
<text x="20" y="234">08:00</text>
<rect x="120" y="220" width="120" height="20" fill="#bde269" stroke="#ffffff" />
<text x="180.0" y="234" text-anchor="middle">0.931</text>
<rect x="240" y="220" width="120" height="20" fill="#c3e477" stroke="#ffffff" />
<text x="300.0" y="234" text-anchor="middle">0.850</text>
<rect x="360" y="220" width="120" height="20" fill="#c0e36f" stroke="#ffffff" />
<text x="420.0" y="234" text-anchor="middle">0.896</text>
<text x="20" y="254">09:00</text>
<rect x="120" y="240" width="120" height="20" fill="#bee26a" stroke="#ffffff" />
<text x="180.0" y="254" text-anchor="middle">0.926</text>
<rect x="240" y="240" width="120" height="20" fill="#c3e477" stroke="#ffffff" />
<text x="300.0" y="254" text-anchor="middle">0.849</text>
<rect x="360" y="240" width="120" height="20" fill="#bfe26e" stroke="#ffffff" />
<text x="420.0" y="254" text-anchor="middle">0.906</text>
<text x="20" y="274">10:00</text>
<rect x="120" y="260" width="120" height="20" fill="#bee26a" stroke="#ffffff" />
<text x="180.0" y="274" text-anchor="middle">0.925</text>
<rect x="240" y="260" width="120" height="20" fill="#c3e376" stroke="#ffffff" />
<text x="300.0" y="274" text-anchor="middle">0.853</text>
<rect x="360" y="260" width="120" height="20" fill="#c0e370" stroke="#ffffff" />
<text x="420.0" y="274" text-anchor="middle">0.892</text>
<text x="20" y="294">11:00</text>
<rect x="120" y="280" width="120" height="20" fill="#bee26a" stroke="#ffffff" />
<text x="180.0" y="294" text-anchor="middle">0.926</text>
<rect x="240" y="280" width="120" height="20" fill="#c2e375" stroke="#ffffff" />
<text x="300.0" y="294" text-anchor="middle">0.860</text>
<rect x="360" y="280" width="120" height="20" fill="#c0e370" stroke="#ffffff" />
<text x="420.0" y="294" text-anchor="middle">0.893</text>
<text x="20" y="314">12:00</text>
<rect x="120" y="300" width="120" height="20" fill="#bde26a" stroke="#ffffff" />
<text x="180.0" y="314" text-anchor="middle">0.931</text>
<rect x="240" y="300" width="120" height="20" fill="#c2e374" stroke="#ffffff" />
<text x="300.0" y="314" text-anchor="middle">0.866</text>
<rect x="360" y="300" width="120" height="20" fill="#c0e370" stroke="#ffffff" />
<text x="420.0" y="314" text-anchor="middle">0.893</text>
<text x="20" y="334">13:00</text>
<rect x="120" y="320" width="120" height="20" fill="#bde269" stroke="#ffffff" />
<text x="180.0" y="334" text-anchor="middle">0.934</text>
<rect x="240" y="320" width="120" height="20" fill="#c3e376" stroke="#ffffff" />
<text x="300.0" y="334" text-anchor="middle">0.854</text>
<rect x="360" y="320" width="120" height="20" fill="#c1e372" stroke="#ffffff" />
<text x="420.0" y="334" text-anchor="middle">0.878</text>
<text x="20" y="354">14:00</text>
<rect x="120" y="340" width="120" height="20" fill="#bde269" stroke="#ffffff" />
<text x="180.0" y="354" text-anchor="middle">0.931</text>
<rect x="240" y="340" width="120" height="20" fill="#c2e374" stroke="#ffffff" />
<text x="300.0" y="354" text-anchor="middle">0.867</text>
<rect x="360" y="340" width="120" height="20" fill="#c0e36f" stroke="#ffffff" />
<text x="420.0" y="354" text-anchor="middle">0.900</text>
<text x="20" y="374">15:00</text>
<rect x="120" y="360" width="120" height="20" fill="#bde269" stroke="#ffffff" />
<text x="180.0" y="374" text-anchor="middle">0.931</text>
<rect x="240" y="360" width="120" height="20" fill="#c2e373" stroke="#ffffff" />
<text x="300.0" y="374" text-anchor="middle">0.870</text>
<rect x="360" y="360" width="120" height="20" fill="#c0e36f" stroke="#ffffff" />
<text x="420.0" y="374" text-anchor="middle">0.899</text>
<text x="20" y="394">16:00</text>
<rect x="120" y="380" width="120" height="20" fill="#bde26a" stroke="#ffffff" />
<text x="180.0" y="394" text-anchor="middle">0.929</text>
<rect x="240" y="380" width="120" height="20" fill="#c2e373" stroke="#ffffff" />
<text x="300.0" y="394" text-anchor="middle">0.870</text>
<rect x="360" y="380" width="120" height="20" fill="#bfe26e" stroke="#ffffff" />
<text x="420.0" y="394" text-anchor="middle">0.903</text>
<text x="20" y="414">17:00</text>
<rect x="120" y="400" width="120" height="20" fill="#bde269" stroke="#ffffff" />
<text x="180.0" y="414" text-anchor="middle">0.933</text>
<rect x="240" y="400" width="120" height="20" fill="#c2e374" stroke="#ffffff" />
<text x="300.0" y="414" text-anchor="middle">0.867</text>
<rect x="360" y="400" width="120" height="20" fill="#bfe26e" stroke="#ffffff" />
<text x="420.0" y="414" text-anchor="middle">0.904</text>
<text x="20" y="434">18:00</text>
<rect x="120" y="420" width="120" height="20" fill="#bde26a" stroke="#ffffff" />
<text x="180.0" y="434" text-anchor="middle">0.931</text>
<rect x="240" y="420" width="120" height="20" fill="#c4e478" stroke="#ffffff" />
<text x="300.0" y="434" text-anchor="middle">0.838</text>
<rect x="360" y="420" width="120" height="20" fill="#c1e372" stroke="#ffffff" />
<text x="420.0" y="434" text-anchor="middle">0.879</text>
<text x="20" y="454">19:00</text>
<rect x="120" y="440" width="120" height="20" fill="#bde269" stroke="#ffffff" />
<text x="180.0" y="454" text-anchor="middle">0.933</text>
<rect x="240" y="440" width="120" height="20" fill="#c4e479" stroke="#ffffff" />
<text x="300.0" y="454" text-anchor="middle">0.837</text>
<rect x="360" y="440" width="120" height="20" fill="#c2e373" stroke="#ffffff" />
<text x="420.0" y="454" text-anchor="middle">0.871</text>
<text x="20" y="474">20:00</text>
<rect x="120" y="460" width="120" height="20" fill="#bde269" stroke="#ffffff" />
<text x="180.0" y="474" text-anchor="middle">0.935</text>
<rect x="240" y="460" width="120" height="20" fill="#c4e479" stroke="#ffffff" />
<text x="300.0" y="474" text-anchor="middle">0.836</text>
<rect x="360" y="460" width="120" height="20" fill="#c2e374" stroke="#ffffff" />
<text x="420.0" y="474" text-anchor="middle">0.866</text>
<text x="20" y="494">21:00</text>
<rect x="120" y="480" width="120" height="20" fill="#bde26a" stroke="#ffffff" />
<text x="180.0" y="494" text-anchor="middle">0.931</text>
<rect x="240" y="480" width="120" height="20" fill="#c4e479" stroke="#ffffff" />
<text x="300.0" y="494" text-anchor="middle">0.837</text>
<rect x="360" y="480" width="120" height="20" fill="#c1e373" stroke="#ffffff" />
<text x="420.0" y="494" text-anchor="middle">0.872</text>
<text x="20" y="514">22:00</text>
<rect x="120" y="500" width="120" height="20" fill="#bde269" stroke="#ffffff" />
<text x="180.0" y="514" text-anchor="middle">0.932</text>
<rect x="240" y="500" width="120" height="20" fill="#c4e47a" stroke="#ffffff" />
<text x="300.0" y="514" text-anchor="middle">0.830</text>
<rect x="360" y="500" width="120" height="20" fill="#c1e372" stroke="#ffffff" />
<text x="420.0" y="514" text-anchor="middle">0.877</text>
<text x="20" y="534">23:00</text>
<rect x="120" y="520" width="120" height="20" fill="#bde269" stroke="#ffffff" />
<text x="180.0" y="534" text-anchor="middle">0.935</text>
<rect x="240" y="520" width="120" height="20" fill="#c4e479" stroke="#ffffff" />
<text x="300.0" y="534" text-anchor="middle">0.835</text>
<rect x="360" y="520" width="120" height="20" fill="#c0e371" stroke="#ffffff" />
<text x="420.0" y="534" text-anchor="middle">0.886</text>
</svg>